<svg width="83" height="99" viewBox="0 0 83 99" fill="none" xmlns="http://www.w3.org/2000/svg">
<path d="M12.0538 86.946C15.8617 90.7667 20.3865 93.7982 25.3684 95.8667C30.3504 97.9352 35.6916 99 41.0859 99C46.4802 99 51.8216 97.9352 56.8035 95.8667C61.7855 93.7982 66.3101 90.7667 70.1181 86.946L41.0215 57.9783L12.0538 86.946Z" fill="#FEB268"/>
<path d="M12.0539 28.991C8.2332 32.7989 5.20174 37.3236 3.13326 42.3056C1.06477 47.2875 0 52.6288 0 58.0232C0 63.4175 1.06477 68.7587 3.13326 73.7407C5.20174 78.7227 8.2332 83.2473 12.0539 87.0553L41.0217 58.0877L12.0539 28.991Z" fill="#A8BBC6"/>
<path d="M41.0431 57.9568C44.8631 54.1595 47.8946 49.6443 49.9632 44.6711C52.0319 39.6979 53.0969 34.3647 53.0969 28.9784C53.0969 23.5921 52.0319 18.2589 49.9632 13.2857C47.8946 8.31247 44.8631 3.79733 41.0431 0L12.0754 28.9676L41.0431 57.9568Z" fill="#FBFBFB"/>
<path d="M70.032 86.9256C73.8528 83.1177 76.8842 78.593 78.9527 73.611C81.0212 68.6291 82.086 63.2878 82.086 57.8935C82.086 52.4992 81.0212 47.1579 78.9527 42.176C76.8842 37.194 73.8528 32.6693 70.032 28.8614L41.0429 57.9581L70.032 86.9256Z" fill="#FE7E02"/>
</svg>
