<svg width="46" height="46" viewBox="0 0 46 46" fill="none" xmlns="http://www.w3.org/2000/svg">
<g id="mdi:twitter">
<path id="Vector" d="M43.0483 11.5C41.5725 12.1708 39.9817 12.6117 38.3333 12.8225C40.02 11.8067 41.3233 10.1967 41.9367 8.26083C40.3458 9.21917 38.5825 9.89 36.7233 10.2733C35.2092 8.625 33.0817 7.66667 30.6667 7.66667C26.1625 7.66667 22.4825 11.3467 22.4825 15.8892C22.4825 16.5408 22.5592 17.1733 22.6933 17.7675C15.87 17.4225 9.79416 14.145 5.74999 9.18083C5.04082 10.3883 4.63832 11.8067 4.63832 13.3017C4.63832 16.1575 6.07582 18.6875 8.29916 20.125C6.93832 20.125 5.67333 19.7417 4.56166 19.1667V19.2242C4.56166 23.2108 7.39832 26.5458 11.155 27.2933C9.94888 27.6234 8.68267 27.6693 7.45582 27.4275C7.9764 29.0614 8.99594 30.4911 10.3711 31.5156C11.7463 32.5401 13.4079 33.1079 15.1225 33.1392C12.2161 35.44 8.61348 36.6837 4.90666 36.6658C4.25499 36.6658 3.60332 36.6275 2.95166 36.5508C6.59332 38.8892 10.925 40.25 15.5633 40.25C30.6667 40.25 38.9658 27.715 38.9658 16.8475C38.9658 16.4833 38.9658 16.1383 38.9467 15.7742C40.5567 14.6242 41.9367 13.1675 43.0483 11.5Z" fill="#383838"/>
</g>
</svg>
