<svg width="46" height="46" viewBox="0 0 46 46" fill="none" xmlns="http://www.w3.org/2000/svg">
<g id="mdi:instagram">
<path id="Vector" d="M14.95 3.83333H31.05C37.1833 3.83333 42.1667 8.81667 42.1667 14.95V31.05C42.1667 33.9983 40.9955 36.8259 38.9107 38.9107C36.8259 40.9955 33.9983 42.1667 31.05 42.1667H14.95C8.81667 42.1667 3.83334 37.1833 3.83334 31.05V14.95C3.83334 12.0017 5.00455 9.17411 7.08933 7.08933C9.17411 5.00455 12.0017 3.83333 14.95 3.83333ZM14.5667 7.66667C12.7367 7.66667 10.9816 8.39363 9.68763 9.68763C8.39363 10.9816 7.66667 12.7367 7.66667 14.5667V31.4333C7.66667 35.2475 10.7525 38.3333 14.5667 38.3333H31.4333C33.2633 38.3333 35.0184 37.6064 36.3124 36.3124C37.6064 35.0184 38.3333 33.2633 38.3333 31.4333V14.5667C38.3333 10.7525 35.2475 7.66667 31.4333 7.66667H14.5667ZM33.0625 10.5417C33.6979 10.5417 34.3073 10.7941 34.7566 11.2434C35.2059 11.6927 35.4583 12.3021 35.4583 12.9375C35.4583 13.5729 35.2059 14.1823 34.7566 14.6316C34.3073 15.0809 33.6979 15.3333 33.0625 15.3333C32.4271 15.3333 31.8177 15.0809 31.3684 14.6316C30.9191 14.1823 30.6667 13.5729 30.6667 12.9375C30.6667 12.3021 30.9191 11.6927 31.3684 11.2434C31.8177 10.7941 32.4271 10.5417 33.0625 10.5417ZM23 13.4167C25.5417 13.4167 27.9792 14.4263 29.7764 16.2236C31.5737 18.0208 32.5833 20.4583 32.5833 23C32.5833 25.5417 31.5737 27.9792 29.7764 29.7764C27.9792 31.5737 25.5417 32.5833 23 32.5833C20.4583 32.5833 18.0208 31.5737 16.2236 29.7764C14.4263 27.9792 13.4167 25.5417 13.4167 23C13.4167 20.4583 14.4263 18.0208 16.2236 16.2236C18.0208 14.4263 20.4583 13.4167 23 13.4167ZM23 17.25C21.475 17.25 20.0125 17.8558 18.9341 18.9341C17.8558 20.0125 17.25 21.475 17.25 23C17.25 24.525 17.8558 25.9875 18.9341 27.0659C20.0125 28.1442 21.475 28.75 23 28.75C24.525 28.75 25.9875 28.1442 27.0659 27.0659C28.1442 25.9875 28.75 24.525 28.75 23C28.75 21.475 28.1442 20.0125 27.0659 18.9341C25.9875 17.8558 24.525 17.25 23 17.25Z" fill="#383838"/>
</g>
</svg>
